# 3ds Max Wavefront OBJ Exporter v0.97b - (c)2007 guruware
# File Created: 27.02.2019 12:19:07

mtllib Blades2.mtl

#
# object Box001
#

v  -1.2786 28.2674 -29.8334
v  -1.2786 28.2674 -18.4192
v  10.0282 28.2674 -18.4192
v  10.0282 28.2674 -29.8334
v  10.0282 24.9344 -18.4192
v  -1.2786 24.9344 -18.4192
v  -1.2786 24.9344 -29.8334
v  10.0282 24.9344 -29.8334
v  8.5593 26.7985 9.6357
v  0.1902 26.7985 9.6357
v  0.1902 26.4032 9.6357
v  8.5593 26.4032 9.6357
v  39.5519 26.6516 -28.2177
v  39.5519 26.6516 -20.0350
v  39.5519 26.5501 -20.0350
v  39.5519 26.5501 -28.2177
v  0.1902 26.7985 -60.2385
v  8.5593 26.7985 -60.2385
v  8.5593 26.4032 -60.2385
v  0.1902 26.4032 -60.2385
v  -29.9211 26.6516 -20.0350
v  -29.9211 26.6516 -28.2177
v  -29.9211 26.5501 -28.2177
v  -29.9211 26.5501 -20.0350
# 24 vertices

vn -0.3267 0.8892 -0.3204
vn -0.3259 0.8886 0.3228
vn 0.3249 0.8888 0.3231
vn 0.3257 0.8894 -0.3207
vn 0.3249 -0.8888 0.3231
vn -0.3259 -0.8886 0.3228
vn -0.3267 -0.8892 -0.3204
vn 0.3257 -0.8894 -0.3207
vn 0.5632 0.5632 0.6047
vn -0.5632 0.5632 0.6047
vn -0.5632 -0.5632 0.6047
vn 0.5632 -0.5632 0.6047
vn 0.6060 0.5625 -0.5625
vn 0.6060 0.5625 0.5625
vn 0.6060 -0.5625 0.5625
vn 0.6060 -0.5625 -0.5625
vn -0.5643 0.5643 -0.6026
vn 0.5643 0.5643 -0.6026
vn 0.5643 -0.5643 -0.6026
vn -0.5643 -0.5643 -0.6026
vn -0.6069 0.5620 0.5620
vn -0.6069 0.5620 -0.5620
vn -0.6069 -0.5620 -0.5620
vn -0.6069 -0.5620 0.5620
# 24 vertex normals

vt 0.0000 1.0000 0.0000
vt 0.0000 0.0000 0.0000
vt 1.0000 0.0000 0.0000
vt 1.0000 1.0000 0.0000
# 4 texture coords

o Box001
g Box001
usemtl wire_224086086
s 2
f 1/1/1 2/2/2 3/3/3 4/4/4 
s 4
f 5/2/5 6/3/6 7/4/7 8/1/8 
s 8
f 9/3/9 10/2/10 11/1/11 12/4/12 
s 16
f 13/3/13 14/2/14 15/1/15 16/4/16 
s 32
f 17/3/17 18/2/18 19/1/19 20/4/20 
s 64
f 21/3/21 22/2/22 23/1/23 24/4/24 
s off
f 4/3/4 3/2/3 14/2/14 13/3/13 
f 5/1/5 8/4/8 16/4/16 15/1/15 
f 3/2/3 5/1/5 15/1/15 14/2/14 
f 8/4/8 4/3/4 13/3/13 16/4/16 
f 1/3/1 4/2/4 18/2/18 17/3/17 
f 8/1/8 7/4/7 20/4/20 19/1/19 
f 7/4/7 1/3/1 17/3/17 20/4/20 
f 4/2/4 8/1/8 19/1/19 18/2/18 
f 2/3/2 1/2/1 22/2/22 21/3/21 
f 7/1/7 6/4/6 24/4/24 23/1/23 
f 6/4/6 2/3/2 21/3/21 24/4/24 
f 1/2/1 7/1/7 23/1/23 22/2/22 
f 3/3/3 2/2/2 10/2/10 9/3/9 
f 6/1/6 5/4/5 12/4/12 11/1/11 
f 5/4/5 3/3/3 9/3/9 12/4/12 
f 2/2/2 6/1/6 11/1/11 10/2/10 
# 22 polygons

